<?xml version="1.0" encoding="utf-8"?>
<!-- Generator: Adobe Illustrator 25.0.0, SVG Export Plug-In . SVG Version: 6.00 Build 0)  -->
<svg version="1.1" id="Layer_1" xmlns="http://www.w3.org/2000/svg" xmlns:xlink="http://www.w3.org/1999/xlink" x="0px" y="0px"
	 viewBox="0 0 354.8 104.4" style="enable-background:new 0 0 354.8 104.4;" xml:space="preserve">
<style type="text/css">
	.st0{fill:#7878F9;}
	.st1{fill:#EFEFEF;}
	.st2{fill:#4A54F5;}
	.st3{fill:#FFE7CE;}
</style>
<g>
	<path d="M0,104.4V34.5h22v69.9H0z"/>
	<path d="M45.1,104.4V34.5h22v69.9H45.1z"/>
	<path d="M169,104.4V85.6l3.3-17l-3.3-17V34.5h21.6v69.9H169z"/>
	<path d="M199.2,104.4V34.5h22v69.9H199.2z"/>
	<path d="M257.4,104.4V0h22v104.4H257.4z"/>
	<path d="M290.9,104.4V0h22v104.4H290.9z"/>
	<path d="M267.2,63.8l76.1-37.7l8.6,15.9l-78.2,39.7L267.2,63.8z"/>
	<path d="M201.7,52l43.7-17.6l9.3,15.4l-49.2,18.9L201.7,52z"/>
	<path d="M3,52l43.7-17.6l9.3,15.4L6.9,68.7L3,52z"/>
	<path d="M87.1,104.4V34.5h22v69.9H87.1z"/>
	<path d="M45.1,52l43.7-17.6l9.3,15.4L49,68.7L45.1,52z"/>
	<path d="M334.9,104.3L293,49.6l10.6-14.9l51.1,69.6H334.9z"/>
	<path d="M151.3,35.1c-19,0-34.4,15.4-34.4,34.4s15.4,34.4,34.4,34.4c19,0,34.4-15.4,34.4-34.4S170.3,35.1,151.3,35.1z M151.3,82.6
		c-7.3,0-13.1-5.9-13.1-13.1s5.9-13.1,13.1-13.1c7.3,0,13.1,5.9,13.1,13.1S158.6,82.6,151.3,82.6z"/>
</g>
</svg>
